<?xml version="1.0" encoding="utf-8"?>
<!-- Generator: Adobe Illustrator 23.1.1, SVG Export Plug-In . SVG Version: 6.00 Build 0)  -->
<svg version="1.1" id="Layer_1" xmlns="http://www.w3.org/2000/svg" xmlns:xlink="http://www.w3.org/1999/xlink" x="0px" y="0px"
	 viewBox="0 0 779.16 279.07" style="enable-background:new 0 0 779.16 279.07;" xml:space="preserve">
<style type="text/css">
	.st0{fill:#808184;}
	.st1{fill:#F0F1F1;}
	.st2{fill:#FACF47;}
	.st3{fill:#57D8AA;}
	.st4{fill:#8E2875;}
	.st5{fill:#F91475;}
</style>
<g>
	<path class="st0" d="M355.85,173.95l6.86-8.12c10.22,9.24,20.02,13.86,33.6,13.86c13.16,0,21.84-7,21.84-16.66v-0.28
		c0-9.1-4.9-14.28-25.48-18.62c-22.54-4.9-32.9-12.18-32.9-28.28v-0.28c0-15.4,13.58-26.74,32.2-26.74
		c14.28,0,24.5,4.06,34.44,12.04l-6.44,8.54c-9.1-7.42-18.2-10.64-28.28-10.64c-12.74,0-20.86,7-20.86,15.82v0.28
		c0,9.24,5.04,14.42,26.6,19.04c21.84,4.76,31.92,12.74,31.92,27.72v0.28c0,16.8-14,27.72-33.46,27.72
		C380.35,189.63,367.61,184.45,355.85,173.95z"/>
	<path class="st0" d="M444.47,86.03h10.78v42.42c4.76-7.84,12.32-14.14,24.78-14.14c17.5,0,27.72,11.76,27.72,28.98v44.94h-10.78
		v-42.28c0-13.44-7.28-21.84-20.02-21.84c-12.46,0-21.7,9.1-21.7,22.68v41.44h-10.78V86.03z"/>
	<path class="st0" d="M519.65,167.23v-0.28c0-15.26,12.6-23.38,30.94-23.38c9.24,0,15.82,1.26,22.26,3.08v-2.52
		c0-13.02-7.98-19.74-21.56-19.74c-8.54,0-15.26,2.24-21.98,5.32l-3.22-8.82c7.98-3.64,15.82-6.02,26.32-6.02
		c10.22,0,18.06,2.66,23.38,7.98c4.9,4.9,7.42,11.9,7.42,21.14v44.24h-10.36v-10.92c-5.04,6.58-13.44,12.46-26.18,12.46
		C533.23,189.77,519.65,182.07,519.65,167.23z M572.99,161.63v-7c-5.32-1.54-12.46-3.08-21.28-3.08c-13.58,0-21.14,5.88-21.14,14.98
		v0.28c0,9.1,8.4,14.42,18.2,14.42C562.07,181.23,572.99,173.11,572.99,161.63z"/>
	<path class="st0" d="M600.57,86.03h10.78v70.56l39.06-40.74h13.44l-30.38,31.08l31.36,41.3h-12.88l-25.9-33.74l-14.7,14.84v18.9
		h-10.78V86.03z"/>
	<path class="st0" d="M666.64,152.25v-0.28c0-20.86,14.7-37.66,34.72-37.66c21.42,0,33.74,17.08,33.74,38.22c0,1.4,0,2.24-0.14,3.5
		h-57.4c1.54,15.68,12.6,24.5,25.48,24.5c9.94,0,16.94-4.06,22.82-10.22l6.72,6.02c-7.28,8.12-16.1,13.58-29.82,13.58
		C682.89,189.91,666.64,174.65,666.64,152.25z M724.18,148.05c-1.12-13.16-8.68-24.64-23.1-24.64c-12.6,0-22.12,10.5-23.52,24.64
		H724.18z"/>
</g>
<g>
	<g>
		<path class="st0" d="M743.15,116.26h-4.05v-1.72h9.9v1.72h-4.05v10.88h-1.8V116.26z M751.78,114.55h1.92l4.5,6.91l4.46-6.91h1.88
			v12.6h-1.76v-9.65l-4.5,6.83h-0.25l-4.46-6.83v9.65h-1.8V114.55z"/>
	</g>
</g>
<g>
	<g>
		<path class="st1" d="M304.07,15.03c-1.5-1.13-3.46-1.49-5.26-0.96c-38.94,11.3-85.77,17.28-135.41,17.28
			c-49.64,0-96.46-5.98-135.41-17.28c-1.81-0.53-3.76-0.17-5.27,0.96c-1.51,1.13-2.39,2.91-2.39,4.79v236.81
			c0,1.88,0.89,3.66,2.39,4.79c1.51,1.13,3.46,1.49,5.27,0.96c38.94-11.3,85.77-17.28,135.41-17.28c49.64,0,96.46,5.97,135.41,17.28
			c0.55,0.16,1.11,0.24,1.67,0.24c1.28,0,2.55-0.41,3.6-1.2c1.51-1.13,2.39-2.9,2.39-4.79V19.82
			C306.46,17.94,305.57,16.17,304.07,15.03z"/>
	</g>
</g>
<g>
	<path class="st2" d="M215.7,83.16l-18.05-16.18c-14.19-12.72-36-11.52-48.72,2.66l-30.59,34.16c12.97-13.48,34.55-13.68,48.48-1.19
		l1.17,1.04l16.34,14.65c2.26,2.03,5.73,1.84,7.76-0.42l4.75-5.3l19.29-21.52C218.19,88.76,218,85.22,215.7,83.16z"/>
	<path class="st3" d="M206.63,121.36l-9.79-8.78l-4.75,5.3c-2.03,2.26-5.5,2.45-7.76,0.42l-16.34-14.65l-19.38,21.58
		c-2.03,2.26-1.84,5.73,0.42,7.76l24.35,21.82l1.2,1.07c13.83,12.39,16.04,33.63,4.35,47.99l30.38-33.81
		C222.02,155.89,220.82,134.08,206.63,121.36z"/>
	<path class="st4" d="M174.57,155.89l-1.2-1.07l-19.3,21.65c-2.03,2.26-5.5,2.45-7.76,0.42l-16.35-14.65l-19.31,21.5
		c-2.06,2.3-1.87,5.84,0.43,7.91l18.05,16.18c13.68,12.26,34.44,11.58,47.31-1.21c0.2-0.2,0.39-0.42,0.58-0.63l1.89-2.1
		C190.61,189.52,188.4,168.29,174.57,155.89z"/>
	<path class="st5" d="M149.03,132.99c-2.26-2.03-2.45-5.5-0.42-7.76l19.38-21.58l-1.17-1.04c-13.93-12.49-35.5-12.29-48.48,1.19
		c-13.62,14.15-12.69,36.64,1.81,49.64l9.81,8.8l16.35,14.65c2.26,2.03,5.73,1.84,7.76-0.42l19.3-21.65L149.03,132.99z"/>
</g>
</svg>
