<?xml version="1.0" encoding="utf-8"?>
<svg id="master-artboard" viewBox="0 0 858.5363159179688 985.9830322265625" version="1.1" xmlns="http://www.w3.org/2000/svg" x="0px" y="0px" style="enable-background:new 0 0 1400 980;" width="858.5363159179688px" height="985.9830322265625px"><defs><style id="ee-google-fonts">@import url(https://fonts.googleapis.com/css?family=Rubik:300,300italic,400,400italic,500,500italic,700,700italic,900,900italic);</style></defs><rect id="ee-background" x="0" y="0" width="858.5363159179688" height="985.9830322265625" style="fill: white; fill-opacity: 0; pointer-events: none;"/>








































<g transform="matrix(1.900582194328308, 0, 0, 1.900582194328308, -2.0450097200350683, 4.901284217834473)"><path d="M32 464a48 48 0 0 0 48 48h288a48 48 0 0 0 48-48V128H32zm272-256a16 16 0 0 1 32 0v224a16 16 0 0 1-32 0zm-96 0a16 16 0 0 1 32 0v224a16 16 0 0 1-32 0zm-96 0a16 16 0 0 1 32 0v224a16 16 0 0 1-32 0zM432 32H312l-9.4-18.7A24 24 0 0 0 281.1 0H166.8a23.72 23.72 0 0 0-21.4 13.3L136 32H16A16 16 0 0 0 0 48v32a16 16 0 0 0 16 16h416a16 16 0 0 0 16-16V48a16 16 0 0 0-16-16z" style="fill: rgb(242, 242, 242); fill-opacity: 0.8;"/></g></svg>